<svg viewBox="0 0 220 280" class="show" xmlns="http://www.w3.org/2000/svg" version="1.1">
  <style media="screen">
    .show .firework {
      offset-path: path("M 20 100 Q 30 20 50 20");
      animation: shoot 3s ease-out infinite;
      animation-delay: var(--animation-delay);
      fill: none;
      offset-distance:100%;
    }
    @keyframes shoot {
      from {offset-distance: 0%;fill:black}
      33.3% {offset-distance: 100%;fill:black}
      33.4% {fill: none}
    }
    .show .explosion {
      animation: explode 3s ease-out infinite;
      animation-delay: calc(var(--animation-delay) + 1s);
      opacity: 0.8;
      transform: translate(0, 0);
      fill: lightgreen;
    }
    @keyframes explode {
      from {
        cy: 20;
        r:0; opacity: 0.8;
      }
      10% {
        cy: 20;
        r:50; opacity: 1.0;
      }
      <!-- 15% {cy: 20; r:50; opacity: 0.8;} -->
      <!-- 30% {cy: 30; opactity: 0.2;} -->
      to {
        cy: 70;
        r: 30; opacity: 0.0;
      }
    }
    .show .path {
      animation: pathshow 3s ease-out forwards infinite;
      animation-delay: var(--animation-delay);
      stroke-dasharray: 40% 100%;
      stroke-dashoffset: 180%;
    }
    @keyframes pathshow {
      from {
        stroke-dashoffset: 180%;
        <!-- stroke-dasharray: 40% 100%; -->
      }
      33.3% {
        stroke-dashoffset: 145%;
        stroke-dasharray: 40% 100%;
      }
      66.7%, to {
        stroke-dashoffset: 105%;
        stroke-dasharray: 0% 140%;
      }
    }
    g:nth-of-type(1) {
      --animation-delay: 0s;
    }
    g:nth-of-type(4) {
      --animation-delay: calc(3s/4);
    }
    g:nth-of-type(2) {
      --animation-delay: 1.5s;
    }
    g:nth-of-type(3) {
      --animation-delay: calc(9s/4);
    }
  </style>
  <g transform="translate(10 40)">
    <path d="M 20 100 Q 30 20 50 20" stroke="orange" fill="none" class="path"/>
    <path d="M -5 -2 L 3 -2 L 3 -3 L 6 0 L 3 3 L 3 2 L -5 2 Z" class="firework"/>
    <circle class="explosion" cx="50" cy="20" r="0"/>
  </g>
  <g transform="translate(120 40)">
    <path d="M 20 100 Q 30 20 50 20" stroke="orange" fill="none" class="path"/>
    <path d="M -5 -2 L 3 -2 L 3 -3 L 6 0 L 3 3 L 3 2 L -5 2 Z" class="firework"/>
    <circle class="explosion" cx="50" cy="20" r="0"/>
  </g>
  <g transform="translate(10 180)">
    <path d="M 20 100 Q 30 20 50 20" stroke="orange" fill="none" class="path"/>
    <path d="M -5 -2 L 3 -2 L 3 -3 L 6 0 L 3 3 L 3 2 L -5 2 Z" class="firework"/>
    <circle class="explosion" cx="50" cy="20" r="0"/>
  </g>
  <g transform="translate(120 180)">
    <path d="M 20 100 Q 30 20 50 20" stroke="orange" fill="none" class="path"/>
    <path d="M -5 -2 L 3 -2 L 3 -3 L 6 0 L 3 3 L 3 2 L -5 2 Z" class="firework"/>
    <circle class="explosion" cx="50" cy="20" r="0"/>
  </g>
  <!-- <rect x="0" y="0" width="500" height="500" fill="url(#fireworkPattern)" id="re"/> -->
</svg>
